<?xml version="1.0" standalone="no"?>
<!DOCTYPE svg PUBLIC "-//W3C//DTD SVG 20010904//EN"
 "http://www.w3.org/TR/2001/REC-SVG-20010904/DTD/svg10.dtd">
<svg version="1.0" xmlns="http://www.w3.org/2000/svg"
 width="768.000000pt" height="1280.000000pt" viewBox="0 0 768.000000 1280.000000"
 preserveAspectRatio="xMidYMid meet">
<g transform="translate(0.000000,1280.000000) scale(0.100000,-0.100000)"
fill="#03a9f4" stroke="none">
<path d="M5260 12776 c-124 -37 -214 -91 -311 -186 -47 -47 -101 -107 -119
-134 -18 -27 -532 -900 -1141 -1940 -609 -1040 -1114 -1891 -1121 -1891 -10 0
-14 97 -20 485 -25 1675 -26 1690 -46 1790 -60 288 -191 511 -367 622 -47 29
-1092 472 -1180 500 -76 24 -208 25 -285 2 -108 -32 -190 -83 -291 -184 -208
-207 -298 -411 -368 -841 -14 -84 -14 -192 -1 -604 6 -181 35 -2260 65 -4620
30 -2360 56 -4342 59 -4405 19 -397 175 -717 416 -852 57 -32 1127 -481 1197
-502 87 -27 144 -21 288 30 74 26 168 89 245 164 189 185 312 455 356 780 13
101 14 217 5 945 -6 457 -13 952 -16 1100 l-6 270 379 645 c208 355 385 646
394 648 10 2 307 -457 978 -1515 530 -835 983 -1543 1007 -1574 49 -65 120
-130 178 -164 66 -39 1156 -495 1210 -507 76 -16 209 -5 287 25 254 97 465
372 563 732 51 189 74 413 55 533 -39 246 -64 341 -123 461 -18 36 -648 1035
-1400 2219 -752 1184 -1367 2160 -1367 2168 0 8 467 812 1038 1787 1237 2110
1123 1913 1165 2017 75 187 110 374 110 590 -1 431 -171 791 -438 923 -92 46
-1119 476 -1165 488 -79 21 -150 19 -230 -5z"/>
</g>
</svg>
